<mxfile host="app.diagrams.net" modified="2024-03-10T03:31:48.391Z" agent="Mozilla/5.0 (Windows NT 10.0; Win64; x64) AppleWebKit/537.36 (KHTML, like Gecko) Chrome/122.0.0.0 Safari/537.36 Edg/122.0.0.0" etag="DJMame5DysdGaR2qV440" version="24.0.3" type="device">
  <diagram name="Page-1" id="EHiSbyyU3NLupmt2UMwz">
    <mxGraphModel dx="1386" dy="751" grid="1" gridSize="10" guides="1" tooltips="1" connect="1" arrows="1" fold="1" page="1" pageScale="1" pageWidth="850" pageHeight="1100" math="0" shadow="0">
      <root>
        <mxCell id="0" />
        <mxCell id="1" parent="0" />
        <mxCell id="bgJ3iHzGf6YziScQmkxo-1" value="player1" style="shape=umlActor;verticalLabelPosition=bottom;verticalAlign=top;html=1;outlineConnect=0;" parent="1" vertex="1">
          <mxGeometry x="90" y="240" width="30" height="60" as="geometry" />
        </mxCell>
        <mxCell id="bgJ3iHzGf6YziScQmkxo-2" value="player 2" style="shape=umlActor;verticalLabelPosition=bottom;verticalAlign=top;html=1;outlineConnect=0;" parent="1" vertex="1">
          <mxGeometry x="700" y="240" width="30" height="60" as="geometry" />
        </mxCell>
        <mxCell id="bgJ3iHzGf6YziScQmkxo-20" value="server say player 2 joined (7)" style="edgeStyle=orthogonalEdgeStyle;rounded=0;orthogonalLoop=1;jettySize=auto;html=1;" parent="1" source="bgJ3iHzGf6YziScQmkxo-5" target="bgJ3iHzGf6YziScQmkxo-1" edge="1">
          <mxGeometry x="0.0634" y="-20" relative="1" as="geometry">
            <mxPoint as="offset" />
          </mxGeometry>
        </mxCell>
        <mxCell id="bgJ3iHzGf6YziScQmkxo-5" value="server" style="rounded=0;whiteSpace=wrap;html=1;" parent="1" vertex="1">
          <mxGeometry x="360" y="70" width="120" height="60" as="geometry" />
        </mxCell>
        <mxCell id="bgJ3iHzGf6YziScQmkxo-7" value="connect to server (1)" style="edgeStyle=orthogonalEdgeStyle;rounded=0;orthogonalLoop=1;jettySize=auto;html=1;entryX=0.064;entryY=1.002;entryDx=0;entryDy=0;entryPerimeter=0;" parent="1" source="bgJ3iHzGf6YziScQmkxo-1" target="bgJ3iHzGf6YziScQmkxo-5" edge="1">
          <mxGeometry x="0.0319" y="10" relative="1" as="geometry">
            <mxPoint as="offset" />
          </mxGeometry>
        </mxCell>
        <mxCell id="bgJ3iHzGf6YziScQmkxo-8" value="Return session id (2)" style="edgeStyle=orthogonalEdgeStyle;rounded=0;orthogonalLoop=1;jettySize=auto;html=1;entryX=1;entryY=0.3333333333333333;entryDx=0;entryDy=0;entryPerimeter=0;" parent="1" source="bgJ3iHzGf6YziScQmkxo-5" target="bgJ3iHzGf6YziScQmkxo-1" edge="1">
          <mxGeometry relative="1" as="geometry" />
        </mxCell>
        <mxCell id="bgJ3iHzGf6YziScQmkxo-10" value="match making and wait for server (3)" style="edgeStyle=orthogonalEdgeStyle;rounded=0;orthogonalLoop=1;jettySize=auto;html=1;entryX=0.326;entryY=0.974;entryDx=0;entryDy=0;entryPerimeter=0;" parent="1" source="bgJ3iHzGf6YziScQmkxo-1" target="bgJ3iHzGf6YziScQmkxo-5" edge="1">
          <mxGeometry x="-0.0491" y="-10" relative="1" as="geometry">
            <mxPoint as="offset" />
          </mxGeometry>
        </mxCell>
        <mxCell id="bgJ3iHzGf6YziScQmkxo-12" value="&lt;div&gt;Login(3.5)&lt;/div&gt;Get game sessions (4) wait for server reply(5)&lt;div&gt;Then join game (6)&lt;/div&gt;" style="edgeStyle=orthogonalEdgeStyle;rounded=0;orthogonalLoop=1;jettySize=auto;html=1;entryX=0.688;entryY=0.993;entryDx=0;entryDy=0;entryPerimeter=0;" parent="1" source="bgJ3iHzGf6YziScQmkxo-2" target="bgJ3iHzGf6YziScQmkxo-5" edge="1">
          <mxGeometry x="-0.3465" y="-20" relative="1" as="geometry">
            <mxPoint as="offset" />
          </mxGeometry>
        </mxCell>
        <mxCell id="bgJ3iHzGf6YziScQmkxo-25" value="render move" style="edgeStyle=orthogonalEdgeStyle;rounded=0;orthogonalLoop=1;jettySize=auto;html=1;" parent="1" source="bgJ3iHzGf6YziScQmkxo-14" target="bgJ3iHzGf6YziScQmkxo-16" edge="1">
          <mxGeometry relative="1" as="geometry" />
        </mxCell>
        <mxCell id="bgJ3iHzGf6YziScQmkxo-14" value="server" style="rounded=0;whiteSpace=wrap;html=1;" parent="1" vertex="1">
          <mxGeometry x="365" y="470" width="120" height="60" as="geometry" />
        </mxCell>
        <mxCell id="bgJ3iHzGf6YziScQmkxo-24" value="make a move" style="edgeStyle=orthogonalEdgeStyle;rounded=0;orthogonalLoop=1;jettySize=auto;html=1;" parent="1" source="bgJ3iHzGf6YziScQmkxo-15" edge="1">
          <mxGeometry relative="1" as="geometry">
            <mxPoint x="430" y="530" as="targetPoint" />
            <Array as="points">
              <mxPoint x="430" y="720" />
              <mxPoint x="430" y="530" />
            </Array>
          </mxGeometry>
        </mxCell>
        <mxCell id="bgJ3iHzGf6YziScQmkxo-15" value="player1" style="shape=umlActor;verticalLabelPosition=bottom;verticalAlign=top;html=1;outlineConnect=0;" parent="1" vertex="1">
          <mxGeometry x="90" y="690" width="30" height="60" as="geometry" />
        </mxCell>
        <mxCell id="bgJ3iHzGf6YziScQmkxo-16" value="player 2" style="shape=umlActor;verticalLabelPosition=bottom;verticalAlign=top;html=1;outlineConnect=0;" parent="1" vertex="1">
          <mxGeometry x="700" y="690" width="30" height="60" as="geometry" />
        </mxCell>
        <mxCell id="bgJ3iHzGf6YziScQmkxo-18" value="Randomize the first player to go (1)" style="edgeStyle=orthogonalEdgeStyle;rounded=0;orthogonalLoop=1;jettySize=auto;html=1;entryX=1.004;entryY=0.107;entryDx=0;entryDy=0;entryPerimeter=0;" parent="1" source="bgJ3iHzGf6YziScQmkxo-14" target="bgJ3iHzGf6YziScQmkxo-14" edge="1">
          <mxGeometry x="-0.01" y="10" relative="1" as="geometry">
            <Array as="points">
              <mxPoint x="470" y="450" />
              <mxPoint x="505" y="450" />
              <mxPoint x="505" y="476" />
            </Array>
            <mxPoint as="offset" />
          </mxGeometry>
        </mxCell>
        <mxCell id="bgJ3iHzGf6YziScQmkxo-21" value="client side do multi threading and egui&amp;nbsp;" style="text;html=1;align=center;verticalAlign=middle;whiteSpace=wrap;rounded=0;" parent="1" vertex="1">
          <mxGeometry x="160" y="440" width="60" height="30" as="geometry" />
        </mxCell>
        <mxCell id="bgJ3iHzGf6YziScQmkxo-22" value="main features:&lt;div&gt;wait for opponent&amp;nbsp;&lt;/div&gt;&lt;div&gt;surrender&lt;/div&gt;&lt;div&gt;make a move&lt;/div&gt;" style="text;html=1;align=center;verticalAlign=middle;whiteSpace=wrap;rounded=0;" parent="1" vertex="1">
          <mxGeometry x="90" y="535" width="60" height="30" as="geometry" />
        </mxCell>
        <mxCell id="n7c1z6AdSlekfF_StNQ_-2" value="match" style="rounded=0;whiteSpace=wrap;html=1;" parent="1" vertex="1">
          <mxGeometry x="1530" y="80" width="120" height="60" as="geometry" />
        </mxCell>
        <mxCell id="n7c1z6AdSlekfF_StNQ_-4" value="Player 1 username" style="text;html=1;align=center;verticalAlign=middle;whiteSpace=wrap;rounded=0;" parent="1" vertex="1">
          <mxGeometry x="1530" y="150" width="60" height="30" as="geometry" />
        </mxCell>
        <mxCell id="n7c1z6AdSlekfF_StNQ_-5" value="player 2 username&amp;nbsp;" style="text;html=1;align=center;verticalAlign=middle;whiteSpace=wrap;rounded=0;" parent="1" vertex="1">
          <mxGeometry x="1530" y="210" width="60" height="30" as="geometry" />
        </mxCell>
        <mxCell id="n7c1z6AdSlekfF_StNQ_-6" value="winner" style="text;html=1;align=center;verticalAlign=middle;whiteSpace=wrap;rounded=0;" parent="1" vertex="1">
          <mxGeometry x="1600" y="150" width="60" height="30" as="geometry" />
        </mxCell>
        <mxCell id="n7c1z6AdSlekfF_StNQ_-8" value="image&lt;div&gt;&lt;br&gt;&lt;/div&gt;" style="text;html=1;align=center;verticalAlign=middle;whiteSpace=wrap;rounded=0;" parent="1" vertex="1">
          <mxGeometry x="1600" y="210" width="60" height="30" as="geometry" />
        </mxCell>
        <mxCell id="n7c1z6AdSlekfF_StNQ_-9" value="50 latest game" style="text;html=1;align=center;verticalAlign=middle;whiteSpace=wrap;rounded=0;" parent="1" vertex="1">
          <mxGeometry x="900" y="340" width="60" height="30" as="geometry" />
        </mxCell>
        <mxCell id="n7c1z6AdSlekfF_StNQ_-12" value="Main feature" style="rounded=0;whiteSpace=wrap;html=1;" parent="1" vertex="1">
          <mxGeometry x="1070" y="80" width="120" height="60" as="geometry" />
        </mxCell>
        <mxCell id="n7c1z6AdSlekfF_StNQ_-13" value="Show leaderboard" style="text;html=1;align=center;verticalAlign=middle;whiteSpace=wrap;rounded=0;" parent="1" vertex="1">
          <mxGeometry x="1080" y="150" width="110" height="30" as="geometry" />
        </mxCell>
        <mxCell id="n7c1z6AdSlekfF_StNQ_-14" value="Matchmaking no balancing yet&amp;nbsp;" style="text;html=1;align=center;verticalAlign=middle;whiteSpace=wrap;rounded=0;" parent="1" vertex="1">
          <mxGeometry x="1085" y="210" width="90" height="30" as="geometry" />
        </mxCell>
        <mxCell id="n7c1z6AdSlekfF_StNQ_-15" value="Login / Register" style="text;html=1;align=center;verticalAlign=middle;whiteSpace=wrap;rounded=0;" parent="1" vertex="1">
          <mxGeometry x="1100" y="280" width="60" height="30" as="geometry" />
        </mxCell>
        <mxCell id="n7c1z6AdSlekfF_StNQ_-16" value="Lastest match (50)" style="text;html=1;align=center;verticalAlign=middle;whiteSpace=wrap;rounded=0;" parent="1" vertex="1">
          <mxGeometry x="1230" y="150" width="60" height="30" as="geometry" />
        </mxCell>
        <mxCell id="n7c1z6AdSlekfF_StNQ_-17" value="Lastest match (50) for each player" style="text;html=1;align=center;verticalAlign=middle;whiteSpace=wrap;rounded=0;" parent="1" vertex="1">
          <mxGeometry x="1230" y="200" width="60" height="80" as="geometry" />
        </mxCell>
        <mxCell id="n7c1z6AdSlekfF_StNQ_-29" value="Find active session this user in or create a new one" style="edgeStyle=orthogonalEdgeStyle;rounded=0;orthogonalLoop=1;jettySize=auto;html=1;entryX=0.5;entryY=0;entryDx=0;entryDy=0;" parent="1" target="n7c1z6AdSlekfF_StNQ_-24" edge="1">
          <mxGeometry relative="1" as="geometry">
            <mxPoint x="1080" y="490" as="sourcePoint" />
            <Array as="points">
              <mxPoint x="1180" y="491" />
            </Array>
          </mxGeometry>
        </mxCell>
        <mxCell id="n7c1z6AdSlekfF_StNQ_-18" value="Match making pipeline&amp;nbsp;" style="rounded=0;whiteSpace=wrap;html=1;" parent="1" vertex="1">
          <mxGeometry x="1020" y="425" width="120" height="60" as="geometry" />
        </mxCell>
        <mxCell id="n7c1z6AdSlekfF_StNQ_-19" value="web pipeline" style="rounded=0;whiteSpace=wrap;html=1;" parent="1" vertex="1">
          <mxGeometry x="1300" y="425" width="120" height="60" as="geometry" />
        </mxCell>
        <mxCell id="n7c1z6AdSlekfF_StNQ_-21" value="Matchmake" style="edgeStyle=orthogonalEdgeStyle;rounded=0;orthogonalLoop=1;jettySize=auto;html=1;" parent="1" source="n7c1z6AdSlekfF_StNQ_-20" target="n7c1z6AdSlekfF_StNQ_-18" edge="1">
          <mxGeometry relative="1" as="geometry" />
        </mxCell>
        <mxCell id="n7c1z6AdSlekfF_StNQ_-20" value="Player" style="shape=umlActor;verticalLabelPosition=bottom;verticalAlign=top;html=1;outlineConnect=0;" parent="1" vertex="1">
          <mxGeometry x="930" y="450" width="30" height="175" as="geometry" />
        </mxCell>
        <mxCell id="n7c1z6AdSlekfF_StNQ_-24" value="Session" style="rounded=0;whiteSpace=wrap;html=1;" parent="1" vertex="1">
          <mxGeometry x="1120" y="670" width="120" height="60" as="geometry" />
        </mxCell>
        <mxCell id="n7c1z6AdSlekfF_StNQ_-25" value="Session id" style="text;html=1;align=center;verticalAlign=middle;whiteSpace=wrap;rounded=0;" parent="1" vertex="1">
          <mxGeometry x="1149.5" y="730" width="60" height="30" as="geometry" />
        </mxCell>
        <mxCell id="n7c1z6AdSlekfF_StNQ_-26" value="Player username" style="text;html=1;align=center;verticalAlign=middle;whiteSpace=wrap;rounded=0;" parent="1" vertex="1">
          <mxGeometry x="1150.5" y="761" width="60" height="30" as="geometry" />
        </mxCell>
        <mxCell id="n7c1z6AdSlekfF_StNQ_-30" value="This is a path with session id as its path" style="text;html=1;align=center;verticalAlign=middle;whiteSpace=wrap;rounded=0;" parent="1" vertex="1">
          <mxGeometry x="1270" y="705" width="60" height="30" as="geometry" />
        </mxCell>
        <mxCell id="n7c1z6AdSlekfF_StNQ_-31" value="Session" style="rounded=0;whiteSpace=wrap;html=1;" parent="1" vertex="1">
          <mxGeometry x="830" y="830" width="120" height="60" as="geometry" />
        </mxCell>
        <mxCell id="n7c1z6AdSlekfF_StNQ_-32" value="Player 1" style="shape=umlActor;verticalLabelPosition=bottom;verticalAlign=top;html=1;outlineConnect=0;" parent="1" vertex="1">
          <mxGeometry x="590" y="1000" width="30" height="60" as="geometry" />
        </mxCell>
        <mxCell id="n7c1z6AdSlekfF_StNQ_-33" value="On a seperate thread, do game logic and host the game" style="text;html=1;align=center;verticalAlign=middle;whiteSpace=wrap;rounded=0;" parent="1" vertex="1">
          <mxGeometry x="1150" y="845" width="60" height="30" as="geometry" />
        </mxCell>
        <mxCell id="n7c1z6AdSlekfF_StNQ_-34" value="Clientside&amp;nbsp;" style="text;html=1;align=center;verticalAlign=middle;whiteSpace=wrap;rounded=0;" parent="1" vertex="1">
          <mxGeometry x="1230" y="1020" width="60" height="30" as="geometry" />
        </mxCell>
        <mxCell id="n7c1z6AdSlekfF_StNQ_-35" value="Object list" style="text;html=1;align=center;verticalAlign=middle;whiteSpace=wrap;rounded=0;" parent="1" vertex="1">
          <mxGeometry x="1420" y="80" width="60" height="30" as="geometry" />
        </mxCell>
        <mxCell id="n7c1z6AdSlekfF_StNQ_-36" value="Player" style="text;html=1;align=center;verticalAlign=middle;whiteSpace=wrap;rounded=0;" parent="1" vertex="1">
          <mxGeometry x="1430" y="120" width="60" height="30" as="geometry" />
        </mxCell>
        <mxCell id="n7c1z6AdSlekfF_StNQ_-37" value="Session" style="text;html=1;align=center;verticalAlign=middle;whiteSpace=wrap;rounded=0;" parent="1" vertex="1">
          <mxGeometry x="1430" y="160" width="60" height="30" as="geometry" />
        </mxCell>
        <mxCell id="n7c1z6AdSlekfF_StNQ_-38" value="Match ( the game itself)" style="text;html=1;align=center;verticalAlign=middle;whiteSpace=wrap;rounded=0;" parent="1" vertex="1">
          <mxGeometry x="1430" y="200" width="60" height="30" as="geometry" />
        </mxCell>
        <mxCell id="n7c1z6AdSlekfF_StNQ_-40" value="" style="rounded=0;whiteSpace=wrap;html=1;fillColor=none;" parent="1" vertex="1">
          <mxGeometry x="1520" y="70" width="140" height="200" as="geometry" />
        </mxCell>
        <mxCell id="n7c1z6AdSlekfF_StNQ_-41" value="PostgreSQL" style="text;html=1;align=center;verticalAlign=middle;whiteSpace=wrap;rounded=0;" parent="1" vertex="1">
          <mxGeometry x="1430" y="255" width="60" height="30" as="geometry" />
        </mxCell>
        <mxCell id="B4510aEKIpnYSESekxUs-1" value="Match will get player1 and player 2 input stream and then start() and stop() methods" style="text;html=1;align=center;verticalAlign=middle;whiteSpace=wrap;rounded=0;" parent="1" vertex="1">
          <mxGeometry x="1520" y="370" width="60" height="30" as="geometry" />
        </mxCell>
        <mxCell id="6O_5lqtDCWDnxAVKvSZ5-1" value="nvm&amp;nbsp;" style="text;html=1;align=center;verticalAlign=middle;whiteSpace=wrap;rounded=0;" vertex="1" parent="1">
          <mxGeometry x="700" y="70" width="60" height="30" as="geometry" />
        </mxCell>
      </root>
    </mxGraphModel>
  </diagram>
</mxfile>
